<svg width="24" height="24" viewBox="0 0 24 24" fill="none" xmlns="http://www.w3.org/2000/svg">
<rect width="24" height="24" fill="#E5E5E5"/>
<g clip-path="url(#clip0_14_45)">
<path fill-rule="evenodd" clip-rule="evenodd" d="M12 24C18.6274 24 24 18.6274 24 12C24 5.37258 18.6274 0 12 0C5.37258 0 0 5.37258 0 12C0 18.6274 5.37258 24 12 24ZM11.036 7.20721C11.036 6.56039 10.5117 6.03604 9.86486 6.03604H7.17117C6.52435 6.03604 6 6.56039 6 7.20721V16.853C6 17.4118 6.45304 17.8649 7.01189 17.8649H8.22522C8.54863 17.8649 8.81081 17.6027 8.81081 17.2793C8.81081 16.9559 8.54863 16.6937 8.22522 16.6937H7.58108C7.35469 16.6937 7.17117 16.5102 7.17117 16.2838L7.17117 7.67568C7.17117 7.41695 7.38091 7.20721 7.63964 7.20721H9.39639C9.65512 7.20721 9.86486 7.41695 9.86486 7.67568V16.9279C9.86486 17.4454 9.44538 17.8649 8.92793 17.8649H9.86486C10.5117 17.8649 11.036 17.3405 11.036 16.6937V7.20721ZM13.3784 6.03604H19C19 6.68286 18.4756 7.20721 17.8288 7.20721H13.8468C13.5881 7.20721 13.3784 7.41695 13.3784 7.67568V9.90091H19V10.1351C19 10.6526 18.5805 11.0721 18.0631 11.0721V17.3964C18.0631 18.0432 17.5387 18.5676 16.8919 18.5676V11.0721H13.3784V17.3964C13.3784 18.0432 12.854 18.5676 12.2072 18.5676V7.20721C12.2072 6.56039 12.7316 6.03604 13.3784 6.03604Z" fill="#6E7781"/>
</g>
<defs>
<clipPath id="clip0_14_45">
<rect width="24" height="24" fill="white"/>
</clipPath>
</defs>
</svg>